<svg width="150" height="32" viewBox="0 0 150 32" fill="none" xmlns="http://www.w3.org/2000/svg">
<path d="M59.3225 3.95898H57.1845C56.7697 3.95898 56.4364 4.2951 56.4364 4.70551V9.99133C55.1174 9.09974 53.5219 8.57612 51.8094 8.57612C47.2463 8.57612 43.5447 12.2698 43.5447 16.8233C43.5447 21.3767 47.2463 25.0704 51.8094 25.0704C53.5255 25.0704 55.1174 24.5503 56.4364 23.6552V23.6623C56.4364 24.0762 56.7732 24.4088 57.1845 24.4088H59.3225C59.7373 24.4088 60.0706 24.0727 60.0706 23.6623V4.70905C60.0706 4.2951 59.7337 3.95898 59.3225 3.95898ZM51.8059 21.773C49.2495 21.773 47.1789 19.5582 47.1789 16.8233C47.1789 14.0919 49.2495 11.8736 51.8059 11.8736C54.3622 11.8736 56.4328 14.0884 56.4328 16.8233C56.4328 19.5582 54.3622 21.773 51.8059 21.773Z" fill="#FF6F1F"/>
<path d="M70.3208 8.57605C66.208 8.57605 62.7972 11.5763 62.1625 15.5035C62.0916 15.9316 62.0562 16.3739 62.0562 16.8232C62.0562 17.3893 62.1129 17.9412 62.2228 18.4719C62.315 18.9283 62.4462 19.367 62.6128 19.7916C63.8077 22.8803 66.8072 25.0704 70.3244 25.0704C73.4587 25.0704 76.1852 23.3296 77.5857 20.761C77.8232 20.3259 77.5006 19.7916 77.0042 19.7916H74.4372C74.189 19.7916 73.9515 19.8977 73.7955 20.0888C72.9481 21.1184 71.7107 21.7694 70.3244 21.7694C68.8104 21.7694 67.4738 20.991 66.6264 19.7916C66.3463 19.3953 66.1229 18.9496 65.9634 18.4719H74.6819H77.7807C78.1601 18.4719 78.4827 18.1924 78.5288 17.8174C78.5678 17.4919 78.5891 17.1593 78.5891 16.8232C78.5891 16.3739 78.5501 15.9352 78.4827 15.5035C77.8445 11.5798 74.4337 8.57605 70.3208 8.57605ZM65.8641 15.5071C66.4066 13.4161 68.1935 11.877 70.3208 11.877C72.4482 11.877 74.2387 13.4161 74.7776 15.5071H65.8641Z" fill="#FF6F1F"/>
<path d="M130.73 3.95898H128.592C128.177 3.95898 127.844 4.2951 127.844 4.70551V9.99133C126.525 9.09974 124.929 8.57612 123.217 8.57612C118.654 8.57612 114.952 12.2698 114.952 16.8233C114.952 21.3767 118.654 25.0704 123.217 25.0704C124.933 25.0704 126.525 24.5503 127.844 23.6552V23.6623C127.844 24.0762 128.181 24.4088 128.592 24.4088H130.73C131.145 24.4088 131.478 24.0727 131.478 23.6623V4.70905C131.482 4.2951 131.145 3.95898 130.73 3.95898ZM123.217 21.773C120.661 21.773 118.59 19.5582 118.59 16.8233C118.59 14.0919 120.661 11.8736 123.217 11.8736C125.773 11.8736 127.844 14.0884 127.844 16.8233C127.844 19.5582 125.773 21.773 123.217 21.773Z" fill="white"/>
<path d="M91.3105 9.28012C90.4737 8.83079 89.5164 8.57605 88.5024 8.57605C86.8183 8.57605 85.2972 9.27658 84.2158 10.4017V9.98419C84.2158 9.57024 83.879 9.23766 83.4677 9.23766H81.3191C80.9043 9.23766 80.571 9.57377 80.571 9.98419V23.6622C80.571 24.0762 80.9078 24.4087 81.3191 24.4087H83.4677C83.8825 24.4087 84.2158 24.0726 84.2158 23.6622V15.5283C84.2158 13.7133 85.6908 12.2415 87.5096 12.2415C89.3285 12.2415 90.8035 13.7133 90.8035 15.5283V23.6622C90.8035 24.0762 91.1403 24.4087 91.5516 24.4087H93.7002C94.115 24.4087 94.4483 24.0726 94.4483 23.6622V14.5164C94.4518 12.2521 93.1825 10.2814 91.3105 9.28012Z" fill="white"/>
<path d="M104.702 8.57605C100.139 8.57605 96.4373 12.2698 96.4373 16.8232C96.4373 21.3766 100.139 25.0704 104.702 25.0704C109.265 25.0704 112.967 21.3766 112.967 16.8232C112.967 12.2698 109.269 8.57605 104.702 8.57605ZM104.702 21.7729C102.146 21.7729 100.075 19.5581 100.075 16.8232C100.075 14.0918 102.146 11.8735 104.702 11.8735C107.258 11.8735 109.329 14.0883 109.329 16.8232C109.329 19.5581 107.258 21.7729 104.702 21.7729Z" fill="white"/>
<path d="M149.89 15.5071C149.255 11.5798 145.845 8.57959 141.732 8.57959C137.619 8.57959 134.208 11.5798 133.573 15.5071C133.502 15.9352 133.467 16.3774 133.467 16.8267C133.467 17.3928 133.524 17.9448 133.634 18.4755C133.726 18.9319 133.857 19.3706 134.024 19.7952C135.219 22.8839 138.218 25.0739 141.735 25.0739C144.87 25.0739 147.596 23.3332 148.997 20.7646C149.234 20.3294 148.911 19.7952 148.415 19.7952H145.848C145.6 19.7952 145.362 19.9013 145.206 20.0923C144.359 21.1219 143.122 21.7729 141.735 21.7729C140.221 21.7729 138.885 20.9945 138.037 19.7952C137.757 19.3989 137.534 18.9531 137.374 18.4755H146.093H149.192C149.571 18.4755 149.894 18.196 149.94 17.8209C149.979 17.4954 150 17.1629 150 16.8267C149.996 16.3774 149.957 15.9352 149.89 15.5071ZM137.271 15.5071C137.814 13.4161 139.601 11.877 141.728 11.877C143.856 11.877 145.646 13.4161 146.185 15.5071H137.271Z" fill="white"/>
<path d="M3.63761 28.3713H1.65565C0.744439 28.3713 0.00341797 29.1108 0.00341797 30.0201C0.00341797 30.9293 0.744439 31.6688 1.65565 31.6688H3.63761C4.54882 31.6688 5.28984 30.9293 5.28984 30.0201C5.28984 29.1108 4.54882 28.3713 3.63761 28.3713Z" fill="#FF6F1F"/>
<path d="M12.8916 28.3713H8.92762C8.01641 28.3713 7.27539 29.1108 7.27539 30.0201C7.27539 30.9293 8.01641 31.6688 8.92762 31.6688H12.8951C13.8063 31.6688 14.5473 30.9293 14.5473 30.0201C14.5473 29.1108 13.8063 28.3713 12.8916 28.3713Z" fill="#FF6F1F"/>
<path d="M10.5799 24.7416C10.5799 23.8323 9.83886 23.0929 8.92765 23.0929H6.94569C6.03448 23.0929 5.29346 23.8323 5.29346 24.7416C5.29346 25.6509 6.03448 26.3903 6.94569 26.3903H8.92765C9.83886 26.3939 10.5799 25.6544 10.5799 24.7416Z" fill="#FF6F1F"/>
<path d="M15.5366 21.1151C16.4478 21.1151 17.1888 20.3756 17.1888 19.4664C17.1888 18.5571 16.4478 17.8176 15.5366 17.8176H4.29719C3.38598 17.8176 2.64496 18.5571 2.64496 19.4664C2.64496 20.3756 3.38598 21.1151 4.29719 21.1151H15.5366Z" fill="#FF6F1F"/>
<path d="M21.1599 0H6.9422C3.10945 0 0 3.10285 0 6.92747C0 10.7521 3.10945 13.8549 6.9422 13.8549H21.1599C22.727 13.8549 24.1169 14.6404 24.9536 15.8327C24.1169 17.0285 22.7306 17.8104 21.1599 17.8104H20.8301C19.9189 17.8104 19.1779 18.5499 19.1779 19.4592C19.1779 20.3684 19.9189 21.1079 20.8301 21.1079H21.1599C22.805 21.1079 24.3367 20.609 25.6025 19.7493C26.9959 18.8082 28.0702 17.439 28.641 15.8292C28.9353 15.0048 29.0948 14.1167 29.0948 13.1898C29.0948 8.81678 25.5422 5.27167 21.1599 5.27167H6.9422C5.42116 5.27167 4.08448 6.06419 3.32219 7.25296C3.31155 7.14329 3.30446 7.03361 3.30446 6.92039C3.30446 4.91786 4.93187 3.29037 6.9422 3.29037H21.1599C21.2556 3.29037 21.5924 3.30098 21.6704 3.30452C26.9037 3.56987 31.0804 7.90042 31.0804 13.1898C31.0804 15.4329 30.3287 17.4991 29.0629 19.162C27.2512 21.5431 24.3828 23.0857 21.1599 23.0857H14.2141C13.3029 23.0857 12.5619 23.8251 12.5619 24.7344C12.5619 25.6437 13.3029 26.3831 14.2141 26.3831H21.1563C26.8576 26.3831 31.7186 22.7814 33.5729 17.7362C32.6475 23.7473 27.432 28.3644 21.1563 28.3644H18.1816C17.2704 28.3644 16.5294 29.1038 16.5294 30.0131C16.5294 30.9224 17.2704 31.6618 18.1816 31.6618H21.1563C29.921 31.6618 37.0263 24.5716 37.0263 15.8256C37.0263 7.0796 29.921 0 21.1599 0ZM6.9422 8.57619H11.1189H21.1563C23.2624 8.57619 25.0423 9.98786 25.5989 11.9126C24.3296 11.0563 22.8015 10.5539 21.1563 10.5539H11.1224H6.9422C6.39618 10.5539 5.94944 10.1117 5.94944 9.5633C5.94944 9.02198 6.39618 8.57619 6.9422 8.57619Z" fill="#FF6F1F"/>
</svg>
